HIERARCHY
ROOT RootJoint
{
    OFFSET   0.000000   0.000000   0.000000
    CHANNELS 6 Xposition Yposition Zposition Xrotation Yrotation Zrotation
    JOINT pelvis_lowerback
    {
        OFFSET   0.000000   0.093605   0.000000
        CHANNELS 3 Xrotation Yrotation Zrotation
        JOINT lowerback_torso
        {
            OFFSET   0.000000   0.100000   0.000000
            CHANNELS 3 Xrotation Yrotation Zrotation
            JOINT torso_head
            {
                OFFSET   0.000000   0.282350   0.000000
                CHANNELS 3 Xrotation Yrotation Zrotation
                End Site
                {
                    OFFSET   0.000000   0.192650   0.000000
                }
            }
            JOINT rTorso_Clavicle
            {
                OFFSET  -0.001000   0.157500   0.000000
                CHANNELS 3 Xrotation Yrotation Zrotation
                JOINT rShoulder
                {
                    OFFSET  -0.117647   0.000000   0.000000
                    CHANNELS 3 Xrotation Yrotation Zrotation
                    JOINT rElbow
                    {
                        OFFSET  -0.245000   0.000000   0.000000
                        CHANNELS 3 Xrotation Yrotation Zrotation
                        JOINT rWrist
                        {
                            OFFSET  -0.240000   0.000000   0.000000
                            CHANNELS 3 Xrotation Yrotation Zrotation
                            End Site
                            {
                                OFFSET  -0.116353  -0.002500   0.000000
                            }
                        }
                    }
                }
            }
            JOINT lTorso_Clavicle
            {
                OFFSET   0.001000   0.157500   0.000000
                CHANNELS 3 Xrotation Yrotation Zrotation
                JOINT lShoulder
                {
                    OFFSET   0.117647   0.000000   0.000000
                    CHANNELS 3 Xrotation Yrotation Zrotation
                    JOINT lElbow
                    {
                        OFFSET   0.245000   0.000000   0.000000
                        CHANNELS 3 Xrotation Yrotation Zrotation
                        JOINT lWrist
                        {
                            OFFSET   0.240000   0.000000   0.000000
                            CHANNELS 3 Xrotation Yrotation Zrotation
                            End Site
                            {
                                OFFSET   0.116353  -0.002500   0.000000
                            }
                        }
                    }
                }
            }
        }
    }
    JOINT rHip
    {
        OFFSET  -0.100000  -0.051395   0.000000
        CHANNELS 3 Xrotation Yrotation Zrotation
        JOINT rKnee
        {
            OFFSET   0.000000  -0.410000   0.000000
            CHANNELS 3 Xrotation Yrotation Zrotation
            JOINT rAnkle
            {
                OFFSET   0.000000  -0.390000   0.000000
                CHANNELS 3 Xrotation Yrotation Zrotation
                JOINT rToeJoint
                {
                    OFFSET   0.000000  -0.050000   0.130000
                    CHANNELS 3 Xrotation Yrotation Zrotation
                    End Site
                    {
                        OFFSET  -0.010000   0.002000   0.060000
                    }
                }
            }
        }
    }
    JOINT lHip
    {
        OFFSET   0.100000  -0.051395   0.000000
        CHANNELS 3 Xrotation Yrotation Zrotation
        JOINT lKnee
        {
            OFFSET   0.000000  -0.410000   0.000000
            CHANNELS 3 Xrotation Yrotation Zrotation
            JOINT lAnkle
            {
                OFFSET   0.000000  -0.390000   0.000000
                CHANNELS 3 Xrotation Yrotation Zrotation
                JOINT lToeJoint
                {
                    OFFSET   0.000000  -0.050000   0.130000
                    CHANNELS 3 Xrotation Yrotation Zrotation
                    End Site
                    {
                        OFFSET   0.010000   0.002000   0.060000
                    }
                }
            }
        }
    }
}
MOTION
Frames: 10
Frame Time:   0.008333
 -2.376719   0.925631   3.975860   0.000000   0.000000   0.000000   0.000000   0.000000   0.000000   0.000000   0.000000   0.000000   0.000000   0.000000   0.000000   0.000000   0.000000   0.000000   0.000000   0.000000   0.000000   0.000000   0.000000   0.000000   0.000000   0.000000   0.000000   0.000000   0.000000   0.000000   0.000000   0.000000   0.000000   0.000000   0.000000   0.000000   0.000000   0.000000   0.000000   0.000000   0.000000   0.000000   0.000000   0.000000   0.000000   0.000000   0.000000   0.000000   0.000000   0.000000   0.000000   0.000000   0.000000   0.000000   0.000000   0.000000   0.000000   0.000000   0.000000   0.000000   0.000000   0.000000   0.000000
 -2.376888   0.926551   3.975221   0.632445   0.041330   0.082956  -0.845994   0.168098  -0.195866   0.273636  -0.242530   0.027170  -0.216514   0.091112   0.040442   0.347000  -0.268941   1.014104   1.158835   0.309529   1.714444   0.009624   0.415353  -0.005690   0.596321  -0.359748  -3.049987   0.448872   0.168663  -1.045028   1.653661  -0.136656  -1.493780   0.009863  -0.428564   0.008116   0.552497   0.210943   2.966317  -1.146961   0.377046  -0.122600   1.172656   0.000460   0.004258  -0.841207   0.238392   0.061717  -0.197258   0.000043  -0.001128  -0.997553  -0.557878   0.005961   0.713766  -0.000589  -0.003221  -0.726018  -0.165694  -0.025524   0.289069  -0.000163  -0.001725
 -2.377183   0.928044   3.974539   1.211365   0.132220   0.176828  -1.613193   0.311776  -0.422457   0.550110  -0.507740   0.030096  -0.432378   0.178148   0.073066   0.689556  -0.476409   2.870299   2.280982   0.679592   4.118397   0.022442   0.819866  -0.010013   1.223514  -0.643620  -5.276835   0.890631   0.247668  -2.906948   3.269713  -0.362299  -3.667602   0.023233  -0.845802   0.014353   1.158975   0.343666   5.153964  -2.243818   0.756574  -0.280133   2.361313   0.001277   0.008191  -1.626374   0.466563   0.124108  -0.413801   0.000037  -0.002212  -1.940565  -1.114956   0.065689   1.416759  -0.001556  -0.005433  -1.408424  -0.327097  -0.053357   0.507906  -0.000401  -0.002585
 -2.377553   0.929618   3.973892   1.752252   0.241429   0.271183  -2.317754   0.434403  -0.657749   0.815574  -0.773920   0.013792  -0.635138   0.259546   0.099730   1.014435  -0.618516   5.209651   3.359238   1.124868   6.971376   0.035171   1.205946  -0.013042   1.828092  -0.854439  -6.522071   1.302020   0.246665  -5.248657   4.839355  -0.697999  -6.295180   0.036802  -1.247177   0.018897   1.747904   0.389696   6.374674  -3.274845   1.117525  -0.459114   3.479092   0.002237   0.010968  -2.359876   0.678893   0.185474  -0.620681  -0.000007  -0.002983  -2.819317  -1.637352   0.173560   2.072166  -0.002614  -0.006685  -2.046980  -0.476591  -0.081026   0.695538  -0.000650  -0.002996
 -2.377972   0.930895   3.973323   2.265398   0.350108   0.364089  -2.970494   0.543095  -0.896528   1.062898  -1.033037  -0.019217  -0.824477   0.335542   0.123740   1.319732  -0.705290   7.839129   4.356992   1.634008  10.020624   0.046226   1.576297  -0.014963   2.416297  -0.976445  -6.985483   1.679016   0.184131  -7.889903   6.297839  -1.131477  -9.107946   0.048843  -1.635591   0.021952   2.323959   0.330702   6.805351  -4.246454   1.459335  -0.653815   4.519859   0.003185   0.012626  -3.045971   0.876097   0.245491  -0.819912  -0.000074  -0.003487  -3.637367  -2.126508   0.319908   2.680974  -0.003612  -0.007322  -2.644485  -0.614859  -0.108155   0.857196  -0.000868  -0.003134
 -2.378413   0.931583   3.972862   2.755065   0.448925   0.454241  -3.579869   0.641947  -1.135121   1.288807  -1.281397  -0.063759  -1.000070   0.406440   0.145146   1.603963  -0.752706  10.614621   5.256070   2.185449  13.093419   0.054818   1.930677  -0.015947   2.989862  -1.015317  -6.899752   2.019224   0.081240 -10.679637   7.630721  -1.642208 -11.957606   0.058478  -2.010338   0.023787   2.886051   0.177212   6.689673  -5.161781   1.782727  -0.859742   5.488026   0.004032   0.013372  -3.687679   1.059196   0.303922  -1.010532  -0.000152  -0.003766  -4.396530  -2.585373   0.496042   3.248029  -0.004471  -0.007571  -3.203332  -0.742922  -0.134572   0.997392  -0.001035  -0.003108
 -2.378858   0.931477   3.972524   3.222528   0.533292   0.541311  -4.152505   0.733130  -1.371291   1.492516  -1.517740  -0.117763  -1.162235   0.472587   0.164790   1.867666  -0.776788  13.419952   6.061786   2.761690  16.109368   0.060716   2.267234  -0.016190   3.545899  -0.992655  -6.472412   2.323569  -0.043303 -13.504393   8.842976  -2.208887 -14.764252   0.065394  -2.369334   0.024654   3.430171  -0.046566   6.231288  -6.022412   2.088613  -1.073111   6.389521   0.004729   0.013429  -4.287640   1.229194   0.360559  -1.191061  -0.000231  -0.003861  -5.098291  -3.016337   0.694430   3.778063  -0.005162  -0.007574  -3.725714  -0.861689  -0.160185   1.120367  -0.001150  -0.002989
 -2.379145   0.929808   3.971881   3.381200   0.520708   0.520379  -4.351473   0.828259  -1.394496   1.823898  -1.656397  -0.189837  -1.482512   0.330363   0.122528   2.101868  -0.418499  15.646836   6.751007   3.188713  18.574518   0.068915   2.764979  -0.018910   4.007122  -1.015849  -4.761723   2.558339  -0.229518 -15.614998   9.889166  -3.036993 -17.388646   0.075843  -2.907615   0.028410   3.828162  -0.235915   4.539181  -6.652359   2.312805  -1.131029   7.593296   0.005318   0.012644  -4.937283   1.410268   0.557625  -1.276463  -0.000103  -0.003371  -5.428344  -3.180530   0.965961   3.977006  -0.004626  -0.006312  -3.940615  -1.077377  -0.129296   1.140641  -0.000976  -0.002458
 -2.379336   0.926834   3.971065   3.507167   0.522631   0.483021  -4.490217   0.912767  -1.383838   2.168200  -1.777688  -0.246019  -1.773940   0.189491   0.085597   2.262844   0.023172  17.458009   7.360358   3.673210  20.675751   0.072000   3.254912  -0.020970   4.466883  -0.921506  -3.278247   2.731359  -0.494220 -17.356628  10.815707  -3.910058 -19.664849   0.080646  -3.441521   0.030992   4.223766  -0.592940   3.006670  -7.216005   2.512597  -1.146738   8.771717   0.005497   0.011907  -5.540179   1.576910   0.744008  -1.344070  -0.000009  -0.002906  -5.777671  -3.327456   1.202509   4.120868  -0.003997  -0.005192  -4.139619  -1.278502  -0.101307   1.179791  -0.000870  -0.002080
 -2.379464   0.922717   3.970209   3.624615   0.532436   0.444195  -4.599887   0.998741  -1.363148   2.493633  -1.883041  -0.294000  -2.039507   0.057836   0.053942   2.369565   0.490519  18.967658   7.901493   4.176497  22.499196   0.071570   3.727127  -0.022204   4.915329  -0.756435  -2.130734   2.858569  -0.788760 -18.820971  11.641159  -4.779712 -21.657765   0.081162  -3.952353   0.032171   4.604679  -1.010948   1.782401  -7.717525   2.697989  -1.137787   9.882018   0.005341   0.011184  -6.102261   1.730847   0.919863  -1.400852   0.000062  -0.002492  -6.154388  -3.464758   1.396076   4.229939  -0.003381  -0.004246  -4.325621  -1.466467  -0.076138   1.218575  -0.000771  -0.001765
